# xmcd
#
# Track frame offsets: 
#        150
#        10688
#        21633
#        30805
#        40007
#        49935
#        59355
#        70472
#        80545
#        90083
#        99364
#        109221
#        118230
#        129414
#        138513
#        150477
#        160563
#        172856
#        183475
#        195284
#        207645
#        216955
#
# Disc length: 3039 seconds
#
# Revision: 2
# Processed by: cddbd v1.5.2PL0 Copyright (c) Steve Scherf et al.
# Submitted via: ExactAudioCopyFreeDBPlugin 1.0
#
DISCID=200bdd16
DTITLE=Jim Reeves - Jim Reeves - Eight Classic Albums - Disc 4
DYEAR=2012
DGENRE=Country
TTITLE0=He'll Have To Go
TTITLE1=I Love You More
TTITLE2=Wishful Thinking
TTITLE3=Honey, Won't You Please Come Home
TTITLE4=I'm Beginning To Forget You
TTITLE5=Billy Bayou
TTITLE6=If Heartache Is The Fashion
TTITLE7=Partners
TTITLE8=I Love To Say I Love You (Theme Of Love)
TTITLE9=I'd Like To Be
TTITLE10=After Awhile
TTITLE11=Home
TTITLE12=According To My Heart
TTITLE13=Don't You Want To Be My Girl
TTITLE14=Don't Tell Me
TTITLE15=You'll Never Be Mine Again
TTITLE16=I've Lived A Lot In My Time
TTITLE17=If You Were Mine
TTITLE18=Don't Ask Me Why
TTITLE19=Stand At Your Window
TTITLE20=What Would You Do
TTITLE21=I Can't Fly
EXTD=
EXTT0=
EXTT1=
EXTT2=
EXTT3=
EXTT4=
EXTT5=
EXTT6=
EXTT7=
EXTT8=
EXTT9=
EXTT10=
EXTT11=
EXTT12=
EXTT13=
EXTT14=
EXTT15=
EXTT16=
EXTT17=
EXTT18=
EXTT19=
EXTT20=
EXTT21=
PLAYORDER=
